<?xml version="1.0" standalone="no"?>
<!DOCTYPE svg PUBLIC "-//W3C//DTD SVG 20010904//EN"
 "http://www.w3.org/TR/2001/REC-SVG-20010904/DTD/svg10.dtd">
<svg version="1.0" xmlns="http://www.w3.org/2000/svg"
 width="700.000000pt" height="700.000000pt" viewBox="0 0 700.000000 700.000000"
 preserveAspectRatio="xMidYMid meet">
<metadata>
Created by potrace 1.11, written by Peter Selinger 2001-2013
</metadata>
<g transform="translate(0.000000,700.000000) scale(0.100000,-0.100000)"
fill="#000000" stroke="none">
<path d="M0 5835 l0 -1165 173 0 173 0 0 986 c-1 867 1 987 14 993 8 4 455 6
993 6 l977 -1 0 173 0 173 -1165 0 -1165 0 0 -1165z"/>
<path d="M3417 5834 c-1 -1 -54 -5 -117 -8 -63 -4 -135 -11 -160 -16 -25 -5
-58 -11 -75 -14 -64 -9 -254 -60 -350 -93 -423 -149 -818 -438 -1091 -798
-159 -210 -286 -451 -360 -685 -33 -103 -72 -255 -80 -315 -3 -27 -8 -52 -9
-55 -2 -3 -7 -37 -10 -75 -4 -38 -9 -78 -11 -90 -6 -28 -5 -341 1 -390 3 -22
7 -60 9 -85 8 -94 76 -405 94 -435 4 -5 7 -14 8 -20 10 -55 102 -267 169 -391
43 -78 187 -300 204 -314 4 -3 36 -41 73 -85 88 -107 299 -307 357 -339 9 -5
18 -12 21 -15 10 -13 107 -78 185 -126 307 -186 602 -286 980 -333 123 -15
508 -6 600 13 11 3 31 7 45 9 324 57 630 180 913 369 49 32 98 66 109 75 322
260 527 509 689 840 100 204 190 487 214 677 4 28 11 77 15 110 9 62 6 470 -5
540 -3 22 -16 96 -30 165 -146 748 -670 1391 -1380 1694 -191 82 -447 153
-615 171 -25 2 -70 7 -100 10 -49 6 -288 13 -293 9z"/>
<path d="M6654 1344 c1 -647 -2 -988 -9 -993 -5 -3 -452 -6 -992 -6 l-983 1 0
-173 0 -173 1165 0 1165 0 0 1165 0 1165 -173 0 -173 0 0 -986z"/>
</g>
</svg>
